<svg version="1.1" viewBox="0.0 0.0 960.0 720.0" fill="none" stroke="none" stroke-linecap="square" stroke-miterlimit="10" xmlns:xlink="http://www.w3.org/1999/xlink" xmlns="http://www.w3.org/2000/svg"><clipPath id="p.0"><path d="m0 0l960.0 0l0 720.0l-960.0 0l0 -720.0z" clip-rule="nonzero"/></clipPath><g clip-path="url(#p.0)"><path fill="#000000" fill-opacity="0.0" d="m0 0l960.0 0l0 720.0l-960.0 0z" fill-rule="evenodd"/><path fill="#000000" fill-opacity="0.0" d="m310.77167 58.90026l338.45667 0l0 213.32281l-338.45667 0z" fill-rule="evenodd"/><path fill="#000000" d="m392.58417 95.01588l0 25.3125l-19.53125 0l0 101.17188l-32.890625 0l0 -101.17188l-19.453125 0l0 -25.3125l71.875 0zm83.125 0l0 126.48438l-32.890625 0l0 -53.125l-9.84375 0l0 53.125l-32.890625 0l0 -126.48438l32.890625 0l0 45.234383l9.84375 0l0 -45.234383l32.890625 0zm13.203125 0l54.84375 0l0 25.3125l-21.953125 0l0 23.984383l20.546875 0l0 24.0625l-20.546875 0l0 27.8125l24.140625 0l0 25.3125l-57.03125 0l0 -126.48438z" fill-rule="nonzero"/><path fill="#000000" fill-opacity="0.0" d="m151.43307 464.35434l657.1339 0l0 213.32285l-657.1339 0z" fill-rule="evenodd"/><path fill="#000000" d="m243.79245 555.6262l-32.890625 0l0 -22.03125q0 -9.609375 -1.0625 -11.984375q-1.046875 -2.390625 -4.640625 -2.390625q-4.0625 0 -5.15625 2.890625q-1.09375 2.890625 -1.09375 12.5l0 58.75q0 9.21875 1.09375 12.03125q1.09375 2.8125 4.921875 2.8125q3.671875 0 4.796875 -2.8125q1.140625 -2.8125 1.140625 -13.203125l0 -15.859375l32.890625 0l0 4.921875q0 19.609375 -2.78125 27.8125q-2.765625 8.203125 -12.265625 14.375q-9.484375 6.171875 -23.390625 6.171875q-14.453125 0 -23.828125 -5.234375q-9.375 -5.234375 -12.421875 -14.484375q-3.046875 -9.265625 -3.046875 -27.859375l0 -36.953125q0 -13.671875 0.9375 -20.5q0.9375 -6.84375 5.578125 -13.1719055q4.65625 -6.328125 12.890625 -9.953125q8.25 -3.640625 18.953125 -3.640625q14.53125 0 23.984375 5.625q9.453125 5.625 12.421875 14.0312805q2.96875 8.390625 2.96875 26.125l0 12.03125zm82.265625 4.0625l0 25.390625q0 13.984375 -1.40625 20.515625q-1.40625 6.515625 -6.015625 12.1875q-4.609375 5.65625 -11.84375 8.359375q-7.21875 2.6875 -16.59375 2.6875q-10.46875 0 -17.734375 -2.296875q-7.265625 -2.3125 -11.296875 -6.953125q-4.015625 -4.65625 -5.734375 -11.25q-1.71875 -6.609375 -1.71875 -19.8125l0 -26.5625q0 -14.453125 3.125 -22.578125q3.125 -8.125 11.25 -13.046875q8.125 -4.921875 20.78125 -4.921875q10.625 0 18.234375 3.171875q7.625 3.15625 11.765625 8.234375q4.140625 5.078125 5.65625 10.46875q1.53125 5.390625 1.53125 16.40625zm-31.5625 -7.8125q0 -7.96875 -0.859375 -10.03125q-0.859375 -2.078125 -3.671875 -2.078125q-2.8125 0 -3.75 2.078125q-0.9375 2.0625 -0.9375 10.03125l0 46.796875q0 7.34375 0.9375 9.578125q0.9375 2.21875 3.671875 2.21875q2.8125 0 3.703125 -2.03125q0.90625 -2.03125 0.90625 -8.75l0 -47.8125zm73.125 -28.59375l-0.546875 9.84375q3.671875 -5.859375 8.75 -8.78125q5.078125 -2.9375 11.5625 -2.9375q12.65625 0 19.921875 11.71875q3.984375 -5.859375 8.984375 -8.78125q5.0 -2.9375 11.09375 -2.9375q8.046875 0 13.3125 3.90625q5.28125 3.90625 6.765625 9.578125q1.484375 5.65625 1.484375 18.390625l0 73.671875l-30.625 0l0 -67.578125q0 -13.28125 -0.90625 -16.4375q-0.890625 -3.171875 -4.171875 -3.171875q-3.359375 0 -4.34375 3.125q-0.96875 3.125 -0.96875 16.484375l0 67.578125l-30.625 0l0 -65.859375q0 -15.234375 -0.75 -18.28125q-0.734375 -3.046875 -4.09375 -3.046875q-2.109375 0 -3.59375 1.609375q-1.484375 1.59375 -1.640625 3.90625q-0.15625 2.296875 -0.15625 9.796875l0 71.875l-30.625 0l0 -103.671875l31.171875 0zm124.296875 0l-0.546875 9.140625q4.21875 -5.546875 9.296875 -8.28125q5.078125 -2.734375 11.09375 -2.734375q7.3437195 0 12.6874695 3.953125q5.359375 3.9375 6.6875 9.09375q1.328125 5.15625 1.328125 17.5l0 43.671875q0 14.140625 -1.6875 20.125q-1.671875 5.96875 -6.875 9.53125q-5.1875 3.546875 -12.5312195 3.546875q-5.859375 0 -10.859375 -2.734375q-5.0 -2.734375 -9.140625 -8.125l0 23.75l-31.5625 0l0 -118.4375l32.109375 0zm8.984375 30.15625q0 -9.609375 -0.703125 -11.640625q-0.703125 -2.03125 -3.90625 -2.03125q-3.125 0 -4.03125 2.34375q-0.890625 2.34375 -0.890625 11.328125l0 42.96875q0 9.375 0.9375 11.71875q0.9375 2.34375 4.0625 2.34375q3.046875 0 3.78125 -2.140625q0.75 -2.15625 0.75 -10.4375l0 -44.453125zm70.15622 10.0l-29.609375 0l0 -6.953125q0 -12.03125 2.765625 -18.546875q2.78125 -6.53125 11.140625 -11.53125q8.359375 -5.0 21.71875 -5.0q16.015625 0 24.140625 5.671875q8.125 5.65625 9.765625 13.90625q1.640625 8.234375 1.640625 33.9375l0 52.03125l-30.703125 0l0 -9.21875q-2.890625 5.546875 -7.46875 8.328125q-4.5625 2.765625 -10.890625 2.765625q-8.28125 0 -15.203125 -4.640625q-6.90625 -4.65625 -6.90625 -20.359375l0 -8.515625q0 -11.640625 3.671875 -15.859375q3.671875 -4.21875 18.203125 -9.84375q15.546875 -6.09375 16.640625 -8.203125q1.09375 -2.109375 1.09375 -8.59375q0 -8.125 -1.21875 -10.578125q-1.203125 -2.46875 -4.015625 -2.46875q-3.203125 0 -3.984375 2.078125q-0.78125 2.0625 -0.78125 10.734375l0 10.859375zm10.0 14.21875q-7.578125 5.546875 -8.796875 9.296875q-1.203125 3.75 -1.203125 10.78125q0 8.046875 1.046875 10.390625q1.0625 2.34375 4.1875 2.34375q2.96875 0 3.859375 -1.828125q0.90625 -1.84375 0.90625 -9.65625l0 -21.328125zm74.53125 -54.375l-0.546875 9.53125q3.4375 -5.703125 8.390625 -8.546875q4.96875 -2.859375 11.453125 -2.859375q8.125 0 13.28125 3.828125q5.15625 3.828125 6.640625 9.65625q1.484375 5.8125 1.484375 19.40625l0 72.65625l-31.5625 0l0 -71.796875q0 -10.703125 -0.703125 -13.046875q-0.703125 -2.34375 -3.90625 -2.34375q-3.359375 0 -4.21875 2.703125q-0.859375 2.6875 -0.859375 14.40625l0 70.078125l-31.5625 0l0 -103.671875l32.109375 0zm117.65625 0l-9.0625 75.0q-2.109375 17.8125 -3.5625 24.296875q-1.4375 6.484375 -4.796875 10.703125q-3.359375 4.21875 -9.34375 6.203125q-5.96875 2.0 -19.09375 2.0l-19.140625 0l0 -16.5625q7.34375 0 9.453125 -0.734375q2.109375 -0.75 2.109375 -3.328125q0 -1.25 -1.953125 -10.859375l-17.265625 -86.71875l28.671875 0l10.3125 69.921875l5.0 -69.921875l28.671875 0z" fill-rule="nonzero"/><path fill="#000000" fill-opacity="0.0" d="m118.68241 202.22835l1052.2834 0l0 302.17322l-1052.2834 0z" fill-rule="evenodd"/><path fill="#000000" d="m217.9793 439.19708q-9.328125 0 -16.21875 -3.859375q-6.875 -3.84375 -6.875 -13.40625q0 -6.0625 3.03125 -13.53125q4.203125 4.65625 7.8125 6.53125q3.625 1.859375 7.8125 1.859375q11.671875 0 17.390625 -13.0625q5.71875 -13.0625 5.71875 -28.9375q0 -29.625 -22.171875 -29.625q-6.296875 0 -10.734375 0.703125l-19.125 89.359375l-33.609375 0l31.734375 -148.39062l34.53125 -4.671875l-10.96875 51.796875l1.40625 0q8.859375 0 16.5625 -5.71875q7.703125 -5.71875 12.359375 -14.46875q4.671875 -8.75 4.671875 -17.609375q0 -10.734375 -7.578125 -17.96875q-7.578125 -7.234375 -23.21875 -7.234375q-14.234375 0 -27.765625 6.421875q-13.53125 6.40625 -22.046875 19.25q-8.515625 12.828125 -8.515625 31.03125q0 8.625 1.625 12.015625q1.640625 3.375 1.640625 3.84375q-12.359375 0 -18.671875 -5.015625q-6.296875 -5.015625 -6.296875 -16.453125q0 -15.859375 11.890625 -30.09375q11.90625 -14.234375 31.5 -22.984375q19.609375 -8.75 41.3125 -8.75q16.328125 0 27.53125 5.140625q11.203125 5.125 16.687485 13.53125q5.484375 8.390625 5.484375 18.4375q0 10.734375 -6.078125 20.765625q-6.0624847 10.03125 -17.26561 16.328125q14.0 2.5625 20.76561 12.953125q6.765625 10.375 6.765625 24.609375q0 13.296875 -5.015625 28.9375q-5.015625 15.625 -16.562485 26.953125q-11.546875 11.3125 -29.515625 11.3125zm126.23518 -2.5625q-19.609375 0 -30.6875 -11.203125q-11.078125 -11.203125 -11.078125 -35.703125q0 -20.765625 7.453125 -46.65625q7.46875 -25.90625 21.8125 -44.34375q14.359375 -18.4375 33.96875 -18.4375q7.0 0 12.1249695 1.875q-10.2655945 6.0625 -19.71872 24.96875q-9.453125 18.890625 -15.28125 42.234375q-5.828125 23.328125 -5.828125 41.296875q0 12.59375 3.265625 19.828125q3.265625 7.234375 10.265625 7.234375q11.4375 0 22.75 -16.453125q11.3124695 -16.453125 18.65622 -41.40625q7.359375 -24.96875 7.359375 -48.078125q0 -14.453125 -2.453125 -23.203125q-2.453125 -8.75 -8.984375 -13.1875q-6.53125 -4.4375 -18.421844 -4.4375q-17.96875 0 -33.375 7.359375q-15.390625 7.34375 -24.609375 21.0q-9.21875 13.640625 -9.21875 31.609375q0 6.296875 1.15625 9.21875q1.171875 2.90625 1.171875 3.375q-11.65625 0 -17.609375 -4.65625q-5.953125 -4.671875 -5.953125 -14.9375q0 -16.09375 13.171875 -30.796875q13.1875 -14.703125 35.0 -23.796875q21.828125 -9.109375 45.859344 -9.109375q29.171875 0 42.234375 15.875q13.0625 15.859375 13.0625 43.859375q0 24.96875 -9.34375 52.03125q-9.328125 27.0625 -28.8125 45.859375q-19.46872 18.78125 -47.93747 18.78125zm189.92883 2.5625q-18.203125 0 -18.203125 -15.640625q0 -5.125 1.515625 -11.765625q1.515625 -6.65625 4.3125 -17.15625q3.265625 -10.96875 4.890625 -18.671875q1.640625 -7.703125 1.640625 -13.765625q0 -15.859375 -14.0 -15.859375q-3.7187805 0 -7.6875305 0.921875l-18.671875 87.96875l-33.59375 0l31.734375 -148.39062l34.53128 -4.671875l-11.4375305 53.890625l1.859375 0q9.1094055 0 16.796906 -6.296875q7.703125 -6.296875 12.015625 -15.734375q4.328125 -9.453125 4.328125 -18.5625q0 -10.734375 -6.421875 -17.609375q-6.40625 -6.890625 -19.25 -6.890625q-18.890656 0 -33.12503 6.765625q-14.234375 6.765625 -22.0625 19.609375q-7.8125 12.828125 -7.8125 30.328125q0 8.625 1.625 12.015625q1.640625 3.375 1.640625 3.84375q-12.59375 0 -18.78125 -5.25q-6.171875 -5.25 -6.171875 -17.375q0 -14.9375 12.25 -29.046875q12.25 -14.125 31.375 -22.875q19.140625 -8.75 38.265656 -8.75q17.5 0 29.390625 5.140625q11.90625 5.125 17.734375 13.640625q5.84375 8.515625 5.84375 18.5625q0 10.953125 -6.765625 21.921875q-6.765625 10.96875 -18.4375 17.96875q8.875 2.5625 12.484375 8.515625q3.609375 5.953125 3.609375 14.8125q0 6.765625 -1.640625 14.359375q-1.625 7.578125 -4.65625 18.78125q-1.859375 7.234375 -3.5 14.234375q-1.625 7.0 -1.625 11.65625q0 5.375 2.4375 9.578125q2.453125 4.1875 6.65625 5.828125q-14.234375 3.96875 -23.09375 3.96875zm83.05829 0.234375q-21.234375 0 -32.078125 -11.671875q-10.84375 -11.671875 -10.84375 -29.390625q0 -12.609375 5.25 -25.3125q5.25 -12.71875 15.046875 -22.28125q9.796875 -9.578125 22.859375 -12.84375q-7.234375 -5.140625 -10.734375 -12.484375q-3.5 -7.34375 -3.5 -15.515625q0 -12.140625 6.640625 -23.796875q6.65625 -11.671875 18.4375 -19.015625q11.796875 -7.359375 26.03125 -7.359375q14.6875 0 24.015625 7.703125q9.34375 7.703125 9.34375 21.46875q0 10.265625 -5.140625 17.265625q-5.125 7.0 -12.125 7.0q-6.296875 0 -10.96875 -6.296875q4.203125 -1.40625 7.234375 -7.703125q3.03125 -6.296875 3.03125 -12.59375q0 -6.765625 -3.734375 -9.921875q-3.734375 -3.15625 -9.09375 -3.15625q-6.765625 0 -12.25 4.796875q-5.484375 4.78125 -8.515625 12.359375q-3.03125 7.578125 -3.03125 15.75q0 11.203125 5.828125 19.71875q5.828125 8.515625 17.734375 11.546875q-11.90625 2.5625 -21.46875 11.671875q-9.5625 9.09375 -14.9375 21.109375q-5.359375 12.015625 -5.359375 22.984375q0 10.5 5.484375 17.03125q5.484375 6.53125 16.6875 6.53125q11.65625 0 24.375 -6.40625q12.71875 -6.421875 18.78125 -17.390625l5.375 2.328125q-9.109375 20.078125 -28.015625 31.984375q-18.890625 11.890625 -40.359375 11.890625zm148.39453 -1.171875q-14.0 0 -28.453125 -12.359375l-1.875 9.328125l-33.59375 0l31.734375 -148.39062l34.53125 -4.671875l-28.0 130.89062q6.53125 4.671875 13.296875 4.671875q13.296875 0 23.4375 -15.390625q10.15625 -15.40625 15.75 -39.203125q5.609375 -23.796875 5.609375 -48.0625q0 -22.875 -8.984375 -33.484375q-8.984375 -10.625 -25.078125 -10.625q-17.5 0 -31.390625 6.890625q-13.875 6.875 -21.8125 19.71875q-7.9375 12.828125 -7.9375 30.09375q0 8.625 1.625 12.015625q1.640625 3.375 1.640625 3.84375q-12.125 0 -18.546875 -5.125q-6.40625 -5.140625 -6.40625 -16.5625q0 -15.875 11.890625 -30.109375q11.90625 -14.234375 31.84375 -22.859375q19.953125 -8.640625 43.0625 -8.640625q31.953125 0 47.125 18.90625q15.171875 18.890625 15.171875 48.296875q0 26.59375 -8.984375 52.390625q-8.984375 25.78125 -23.921875 42.109375q-14.921875 16.328125 -31.734375 16.328125z" fill-rule="nonzero"/></g></svg>